<?xml version="1.0" encoding="UTF-8" standalone="no"?>
<!DOCTYPE svg PUBLIC "-//W3C//DTD SVG 1.1//EN"
 "http://www.w3.org/Graphics/SVG/1.1/DTD/svg11.dtd">
<!-- Generated by graphviz version 2.43.0 (0)
 -->
<!-- Title: com.teragrep.nbs_01.endpoints.DelegatingEndpoint Pages: 1 -->
<svg width="366pt" height="126pt"
 viewBox="0.00 0.00 366.00 126.00" xmlns="http://www.w3.org/2000/svg" xmlns:xlink="http://www.w3.org/1999/xlink">
<g id="graph0" class="graph" transform="scale(1 1) rotate(0) translate(4 122)">
<title>com.teragrep.nbs_01.endpoints.DelegatingEndpoint</title>
<!-- Node1 -->
<g id="Node000001" class="node">
<title>Node1</title>
<g id="a_Node000001"><a xlink:title=" ">
<polygon fill="#999999" stroke="#666666" points="206,-30 33,-30 33,0 206,0 206,-30"/>
<text text-anchor="start" x="41" y="-18" font-family="Helvetica,sans-Serif" font-size="10.00">com.teragrep.nbs_01.endpoints.</text>
<text text-anchor="middle" x="119.5" y="-7" font-family="Helvetica,sans-Serif" font-size="10.00">DelegatingEndpoint</text>
</a>
</g>
</g>
<!-- Node2 -->
<g id="Node000002" class="node">
<title>Node2</title>
<g id="a_Node000002"><a xlink:href="interfacecom_1_1teragrep_1_1nbs__01_1_1endpoints_1_1EndPoint.html" target="_top" xlink:title=" ">
<polygon fill="white" stroke="#666666" points="173,-118 0,-118 0,-88 173,-88 173,-118"/>
<text text-anchor="start" x="8" y="-106" font-family="Helvetica,sans-Serif" font-size="10.00">com.teragrep.nbs_01.endpoints.</text>
<text text-anchor="middle" x="86.5" y="-95" font-family="Helvetica,sans-Serif" font-size="10.00">EndPoint</text>
</a>
</g>
</g>
<!-- Node2&#45;&gt;Node1 -->
<g id="edge1_Node000001_Node000002" class="edge">
<title>Node2&#45;&gt;Node1</title>
<g id="a_edge1_Node000001_Node000002"><a xlink:title=" ">
<path fill="none" stroke="#63b8ff" d="M91.22,-77.89C93.47,-68.38 96.55,-57.48 100.5,-48 103.03,-41.92 106.57,-35.6 109.9,-30.2"/>
<polygon fill="#63b8ff" stroke="#63b8ff" points="87.75,-77.37 89.02,-87.89 94.58,-78.87 87.75,-77.37"/>
</a>
</g>
</g>
<!-- Node2&#45;&gt;Node1 -->
<g id="edge2_Node000001_Node000002" class="edge">
<title>Node2&#45;&gt;Node1</title>
<g id="a_edge2_Node000001_Node000002"><a xlink:title=" ">
<path fill="none" stroke="#9a32cd" stroke-dasharray="5,2" d="M95.56,-78.38C101.49,-62.94 109.02,-43.3 114.04,-30.22"/>
<polygon fill="#9a32cd" stroke="#9a32cd" points="92.26,-77.21 91.95,-87.8 98.8,-79.72 92.26,-77.21"/>
</a>
</g>
<text text-anchor="middle" x="142.5" y="-62" font-family="Helvetica,sans-Serif" font-size="10.00" fill="grey"> falseEndpoint</text>
<text text-anchor="middle" x="142.5" y="-51" font-family="Helvetica,sans-Serif" font-size="10.00" fill="grey">trueEndpoint</text>
</g>
<!-- Node3 -->
<g id="Node000003" class="node">
<title>Node3</title>
<g id="a_Node000003"><a xlink:href="interfacecom_1_1teragrep_1_1nbs__01_1_1Delegate.html" target="_top" xlink:title=" ">
<polygon fill="white" stroke="#666666" points="358,-112.5 191,-112.5 191,-93.5 358,-93.5 358,-112.5"/>
<text text-anchor="middle" x="274.5" y="-100.5" font-family="Helvetica,sans-Serif" font-size="10.00">com.teragrep.nbs_01.Delegate</text>
</a>
</g>
</g>
<!-- Node3&#45;&gt;Node1 -->
<g id="edge3_Node000001_Node000003" class="edge">
<title>Node3&#45;&gt;Node1</title>
<g id="a_edge3_Node000001_Node000003"><a xlink:title=" ">
<path fill="none" stroke="#9a32cd" stroke-dasharray="5,2" d="M251.42,-88.17C232.71,-77.07 205.59,-61.2 181.5,-48 170.45,-41.95 158.15,-35.53 147.43,-30.04"/>
<polygon fill="#9a32cd" stroke="#9a32cd" points="249.75,-91.25 260.13,-93.36 253.33,-85.23 249.75,-91.25"/>
</a>
</g>
<text text-anchor="middle" x="268" y="-56.5" font-family="Helvetica,sans-Serif" font-size="10.00" fill="grey"> delegationFunction</text>
</g>
</g>
</svg>
