<?xml version="1.0" encoding="UTF-8" standalone="no"?>
<!DOCTYPE svg PUBLIC "-//W3C//DTD SVG 1.1//EN"
 "http://www.w3.org/Graphics/SVG/1.1/DTD/svg11.dtd">
<!-- Generated by graphviz version 2.43.0 (0)
 -->
<!-- Title: com.teragrep.nbs_01.NotebookServer Pages: 1 -->
<svg width="270pt" height="104pt"
 viewBox="0.00 0.00 270.00 104.00" xmlns="http://www.w3.org/2000/svg" xmlns:xlink="http://www.w3.org/1999/xlink">
<g id="graph0" class="graph" transform="scale(1 1) rotate(0) translate(4 100)">
<title>com.teragrep.nbs_01.NotebookServer</title>
<!-- Node1 -->
<g id="Node000001" class="node">
<title>Node1</title>
<g id="a_Node000001"><a xlink:title=" ">
<polygon fill="#999999" stroke="#666666" points="183,-30 13,-30 13,0 183,0 183,-30"/>
<text text-anchor="start" x="21" y="-18" font-family="Helvetica,sans-Serif" font-size="10.00">com.teragrep.nbs_01.Notebook</text>
<text text-anchor="middle" x="98" y="-7" font-family="Helvetica,sans-Serif" font-size="10.00">Server</text>
</a>
</g>
</g>
<!-- Node2 -->
<g id="Node000002" class="node">
<title>Node2</title>
<g id="a_Node000002"><a xlink:title=" ">
<polygon fill="white" stroke="#666666" points="56,-96 0,-96 0,-77 56,-77 56,-96"/>
<text text-anchor="middle" x="28" y="-84" font-family="Helvetica,sans-Serif" font-size="10.00">Callable</text>
</a>
</g>
</g>
<!-- Node2&#45;&gt;Node1 -->
<g id="edge1_Node000001_Node000002" class="edge">
<title>Node2&#45;&gt;Node1</title>
<g id="a_edge1_Node000001_Node000002"><a xlink:title=" ">
<path fill="none" stroke="#63b8ff" d="M43.74,-69.87C55.75,-57.95 72.14,-41.67 83.76,-30.14"/>
<polygon fill="#63b8ff" stroke="#63b8ff" points="41.21,-67.45 36.58,-76.98 46.15,-72.42 41.21,-67.45"/>
</a>
</g>
</g>
<!-- Node3 -->
<g id="Node000003" class="node">
<title>Node3</title>
<g id="a_Node000003"><a xlink:href="classcom_1_1teragrep_1_1nbs__01_1_1Configuration.html" target="_top" xlink:title=" ">
<polygon fill="white" stroke="#666666" points="262,-96 74,-96 74,-77 262,-77 262,-96"/>
<text text-anchor="middle" x="168" y="-84" font-family="Helvetica,sans-Serif" font-size="10.00">com.teragrep.nbs_01.Configuration</text>
</a>
</g>
</g>
<!-- Node3&#45;&gt;Node1 -->
<g id="edge2_Node000001_Node000003" class="edge">
<title>Node3&#45;&gt;Node1</title>
<g id="a_edge2_Node000001_Node000003"><a xlink:title=" ">
<path fill="none" stroke="#9a32cd" stroke-dasharray="5,2" d="M152.26,-69.87C140.25,-57.95 123.86,-41.67 112.24,-30.14"/>
<polygon fill="#9a32cd" stroke="#9a32cd" points="149.85,-72.42 159.42,-76.98 154.79,-67.45 149.85,-72.42"/>
</a>
</g>
<text text-anchor="middle" x="172.5" y="-51" font-family="Helvetica,sans-Serif" font-size="10.00" fill="grey"> configuration</text>
</g>
</g>
</svg>
