<?xml version="1.0" encoding="UTF-8" standalone="no"?>
<!DOCTYPE svg PUBLIC "-//W3C//DTD SVG 1.1//EN"
 "http://www.w3.org/Graphics/SVG/1.1/DTD/svg11.dtd">
<!-- Generated by graphviz version 2.43.0 (0)
 -->
<!-- Title: com.teragrep.nbs_01.endpoints.paragraph.DeleteParagraphEndpoint.createResponse Pages: 1 -->
<svg width="496pt" height="62pt"
 viewBox="0.00 0.00 496.00 61.50" xmlns="http://www.w3.org/2000/svg" xmlns:xlink="http://www.w3.org/1999/xlink">
<g id="graph0" class="graph" transform="scale(1 1) rotate(0) translate(4 57.5)">
<title>com.teragrep.nbs_01.endpoints.paragraph.DeleteParagraphEndpoint.createResponse</title>
<!-- Node1 -->
<g id="Node000001" class="node">
<title>Node1</title>
<g id="a_Node000001"><a xlink:title=" ">
<polygon fill="#999999" stroke="#666666" points="226,-35.5 0,-35.5 0,-5.5 226,-5.5 226,-35.5"/>
<text text-anchor="start" x="8" y="-23.5" font-family="Helvetica,sans-Serif" font-size="10.00">com.teragrep.nbs_01.endpoints.paragraph.</text>
<text text-anchor="middle" x="113" y="-12.5" font-family="Helvetica,sans-Serif" font-size="10.00">DeleteParagraphEndpoint.createResponse</text>
</a>
</g>
</g>
<!-- Node1&#45;&gt;Node1 -->
<g id="edge1_Node000001_Node000001" class="edge">
<title>Node1&#45;&gt;Node1</title>
<g id="a_edge1_Node000001_Node000001"><a xlink:title=" ">
<path fill="none" stroke="#63b8ff" d="M66.95,-35.78C56.71,-44.91 72.06,-53.5 113,-53.5 137.31,-53.5 152.59,-50.47 158.86,-46.1"/>
<polygon fill="#63b8ff" stroke="#63b8ff" points="162.37,-45.84 159.05,-35.78 155.37,-45.71 162.37,-45.84"/>
</a>
</g>
</g>
<!-- Node2 -->
<g id="Node000002" class="node">
<title>Node2</title>
<g id="a_Node000002"><a xlink:href="classcom_1_1teragrep_1_1nbs__01_1_1endpoints_1_1paragraph_1_1DeleteParagraphEndpoint.html#a8584a8d677efb07f43d17e735ed112af" target="_top" xlink:title=" ">
<polygon fill="white" stroke="#666666" points="488,-41 262,-41 262,0 488,0 488,-41"/>
<text text-anchor="start" x="270" y="-29" font-family="Helvetica,sans-Serif" font-size="10.00">com.teragrep.nbs_01.endpoints.paragraph.</text>
<text text-anchor="start" x="270" y="-18" font-family="Helvetica,sans-Serif" font-size="10.00">DeleteParagraphEndpoint.validateRequest</text>
<text text-anchor="middle" x="375" y="-7" font-family="Helvetica,sans-Serif" font-size="10.00">Parameters</text>
</a>
</g>
</g>
<!-- Node1&#45;&gt;Node2 -->
<g id="edge2_Node000001_Node000002" class="edge">
<title>Node1&#45;&gt;Node2</title>
<g id="a_edge2_Node000001_Node000002"><a xlink:title=" ">
<path fill="none" stroke="#63b8ff" d="M226.15,-20.5C234.65,-20.5 243.24,-20.5 251.8,-20.5"/>
<polygon fill="#63b8ff" stroke="#63b8ff" points="251.81,-24 261.81,-20.5 251.81,-17 251.81,-24"/>
</a>
</g>
</g>
</g>
</svg>
