<?xml version="1.0" encoding="UTF-8" standalone="no"?>
<!DOCTYPE svg PUBLIC "-//W3C//DTD SVG 1.1//EN"
 "http://www.w3.org/Graphics/SVG/1.1/DTD/svg11.dtd">
<!-- Generated by graphviz version 2.43.0 (0)
 -->
<!-- Title: Graphical Class Hierarchy Pages: 1 -->
<svg width="342pt" height="86pt"
 viewBox="0.00 0.00 342.00 86.00" xmlns="http://www.w3.org/2000/svg" xmlns:xlink="http://www.w3.org/1999/xlink">
<g id="graph0" class="graph" transform="scale(1 1) rotate(0) translate(4 82)">
<title>Graphical Class Hierarchy</title>
<!-- Node0 -->
<g id="Node000000" class="node">
<title>Node0</title>
<g id="a_Node000000"><a xlink:title=" ">
<polygon fill="#e0e0e0" stroke="#999999" points="134,-54 0,-54 0,-24 134,-24 134,-54"/>
<text text-anchor="start" x="8" y="-42" font-family="Helvetica,sans-Serif" font-size="10.00">jakarta.servlet.http.Http</text>
<text text-anchor="middle" x="67" y="-31" font-family="Helvetica,sans-Serif" font-size="10.00">Servlet</text>
</a>
</g>
</g>
<!-- Node1 -->
<g id="Node000001" class="node">
<title>Node1</title>
<g id="a_Node000001"><a xlink:href="classcom_1_1teragrep_1_1nbs__01_1_1servlets_1_1FileSystemServlet.html" target="_top" xlink:title=" ">
<polygon fill="white" stroke="#666666" points="334,-78 170,-78 170,-48 334,-48 334,-78"/>
<text text-anchor="start" x="178" y="-66" font-family="Helvetica,sans-Serif" font-size="10.00">com.teragrep.nbs_01.servlets.</text>
<text text-anchor="middle" x="252" y="-55" font-family="Helvetica,sans-Serif" font-size="10.00">FileSystemServlet</text>
</a>
</g>
</g>
<!-- Node0&#45;&gt;Node1 -->
<g id="edge28_Node000000_Node000001" class="edge">
<title>Node0&#45;&gt;Node1</title>
<g id="a_edge28_Node000000_Node000001"><a xlink:title=" ">
<path fill="none" stroke="#63b8ff" d="M144.23,-49C152.65,-50.1 161.24,-51.23 169.72,-52.34"/>
<polygon fill="#63b8ff" stroke="#63b8ff" points="144.44,-45.49 134.07,-47.66 143.53,-52.44 144.44,-45.49"/>
</a>
</g>
</g>
<!-- Node2 -->
<g id="Node000002" class="node">
<title>Node2</title>
<g id="a_Node000002"><a xlink:href="classcom_1_1teragrep_1_1nbs__01_1_1servlets_1_1HttpServlet.html" target="_top" xlink:title=" ">
<polygon fill="white" stroke="#666666" points="334,-30 170,-30 170,0 334,0 334,-30"/>
<text text-anchor="start" x="178" y="-18" font-family="Helvetica,sans-Serif" font-size="10.00">com.teragrep.nbs_01.servlets.</text>
<text text-anchor="middle" x="252" y="-7" font-family="Helvetica,sans-Serif" font-size="10.00">HttpServlet</text>
</a>
</g>
</g>
<!-- Node0&#45;&gt;Node2 -->
<g id="edge29_Node000000_Node000002" class="edge">
<title>Node0&#45;&gt;Node2</title>
<g id="a_edge29_Node000000_Node000002"><a xlink:title=" ">
<path fill="none" stroke="#63b8ff" d="M144.23,-29C152.65,-27.9 161.24,-26.77 169.72,-25.66"/>
<polygon fill="#63b8ff" stroke="#63b8ff" points="143.53,-25.56 134.07,-30.34 144.44,-32.51 143.53,-25.56"/>
</a>
</g>
</g>
</g>
</svg>
