<?xml version="1.0" encoding="UTF-8" standalone="no"?><svg xmlns="http://www.w3.org/2000/svg" xmlns:xlink="http://www.w3.org/1999/xlink" contentScriptType="application/ecmascript" contentStyleType="text/css" height="230px" preserveAspectRatio="none" style="width:325px;height:230px;" version="1.1" viewBox="0 0 325 230" width="325px" zoomAndPan="magnify"><defs><filter height="300%" id="f1nab58rknm70i" width="300%" x="-1" y="-1"><feGaussianBlur result="blurOut" stdDeviation="2.0"/><feColorMatrix in="blurOut" result="blurOut2" type="matrix" values="0 0 0 0 0 0 0 0 0 0 0 0 0 0 0 0 0 0 .4 0"/><feOffset dx="4.0" dy="4.0" in="blurOut2" result="blurOut3"/><feBlend in="SourceGraphic" in2="blurOut3" mode="normal"/></filter></defs><g><!--MD5=[9bd2b2bc45261200a440e1ecb7c43192]
class Directory--><rect fill="#FEFECE" filter="url(#f1nab58rknm70i)" height="60.8047" id="Directory" style="stroke: #A80036; stroke-width: 1.5;" width="88" x="16" y="20.5"/><ellipse cx="31" cy="36.5" fill="#ADD1B2" rx="11" ry="11" style="stroke: #A80036; stroke-width: 1.0;"/><path d="M33.9688,42.1406 Q33.3906,42.4375 32.75,42.5781 Q32.1094,42.7344 31.4063,42.7344 Q28.9063,42.7344 27.5781,41.0938 Q26.2656,39.4375 26.2656,36.3125 Q26.2656,33.1875 27.5781,31.5313 Q28.9063,29.875 31.4063,29.875 Q32.1094,29.875 32.75,30.0313 Q33.4063,30.1875 33.9688,30.4844 L33.9688,33.2031 Q33.3438,32.625 32.75,32.3594 Q32.1563,32.0781 31.5313,32.0781 Q30.1875,32.0781 29.5,33.1563 Q28.8125,34.2188 28.8125,36.3125 Q28.8125,38.4063 29.5,39.4844 Q30.1875,40.5469 31.5313,40.5469 Q32.1563,40.5469 32.75,40.2813 Q33.3438,40 33.9688,39.4219 L33.9688,42.1406 Z "/><text fill="#000000" font-family="sans-serif" font-size="12" lengthAdjust="spacingAndGlyphs" textLength="56" x="45" y="40.6543">Directory</text><line style="stroke: #A80036; stroke-width: 1.5;" x1="17" x2="103" y1="52.5" y2="52.5"/><line style="stroke: #A80036; stroke-width: 1.5;" x1="17" x2="103" y1="60.5" y2="60.5"/><ellipse cx="27" cy="71.5" fill="#84BE84" rx="3" ry="3" style="stroke: #038048; stroke-width: 1.0;"/><text fill="#000000" font-family="sans-serif" font-size="11" lengthAdjust="spacingAndGlyphs" textLength="48" x="36" y="74.7104">findFile()</text><!--MD5=[c8e2fc65cf92c7c9e8c751f84552fce5]
class ZeppelinFile--><rect fill="#FEFECE" filter="url(#f1nab58rknm70i)" height="48" id="ZeppelinFile" style="stroke: #A80036; stroke-width: 1.5;" width="108" x="6" y="171"/><ellipse cx="21" cy="187" fill="#ADD1B2" rx="11" ry="11" style="stroke: #A80036; stroke-width: 1.0;"/><path d="M23.9688,192.6406 Q23.3906,192.9375 22.75,193.0781 Q22.1094,193.2344 21.4063,193.2344 Q18.9063,193.2344 17.5781,191.5938 Q16.2656,189.9375 16.2656,186.8125 Q16.2656,183.6875 17.5781,182.0313 Q18.9063,180.375 21.4063,180.375 Q22.1094,180.375 22.75,180.5313 Q23.4063,180.6875 23.9688,180.9844 L23.9688,183.7031 Q23.3438,183.125 22.75,182.8594 Q22.1563,182.5781 21.5313,182.5781 Q20.1875,182.5781 19.5,183.6563 Q18.8125,184.7188 18.8125,186.8125 Q18.8125,188.9063 19.5,189.9844 Q20.1875,191.0469 21.5313,191.0469 Q22.1563,191.0469 22.75,190.7813 Q23.3438,190.5 23.9688,189.9219 L23.9688,192.6406 Z "/><text fill="#000000" font-family="sans-serif" font-size="12" lengthAdjust="spacingAndGlyphs" textLength="76" x="35" y="191.1543">ZeppelinFile</text><line style="stroke: #A80036; stroke-width: 1.5;" x1="7" x2="113" y1="203" y2="203"/><line style="stroke: #A80036; stroke-width: 1.5;" x1="7" x2="113" y1="211" y2="211"/><path d="M139,8 L139,47 L104.09,51 L139,55 L139,93.6641 A0,0 0 0 0 139,93.6641 L313,93.6641 A0,0 0 0 0 313,93.6641 L313,18 L303,8 L139,8 A0,0 0 0 0 139,8 " fill="#FBFB77" filter="url(#f1nab58rknm70i)" style="stroke: #A80036; stroke-width: 1.0;"/><path d="M303,8 L303,18 L313,18 L303,8 " fill="#FBFB77" style="stroke: #A80036; stroke-width: 1.0;"/><text fill="#000000" font-family="sans-serif" font-size="13" lengthAdjust="spacingAndGlyphs" textLength="101" x="145" y="25.0669">Responsibilities:</text><text fill="#000000" font-family="sans-serif" font-size="13" lengthAdjust="spacingAndGlyphs" textLength="153" x="145" y="40.1997">- Contains ZeppelinFiles</text><text fill="#000000" font-family="sans-serif" font-size="13" lengthAdjust="spacingAndGlyphs" textLength="0" x="149" y="55.3325"/><text fill="#000000" font-family="sans-serif" font-size="13" lengthAdjust="spacingAndGlyphs" textLength="89" x="145" y="70.4653">Collaborators:</text><text fill="#000000" font-family="sans-serif" font-size="13" lengthAdjust="spacingAndGlyphs" textLength="86" x="145" y="85.5981">- ZeppelinFile</text><!--MD5=[46b853dd268b03ff98c2f28cb1909054]
link Directory to ZeppelinFile--><path d="M60,81.77 C60,106.52 60,141.5 60,165.81 " fill="none" id="Directory-&gt;ZeppelinFile" style="stroke: #A80036; stroke-width: 1.0;"/><polygon fill="#A80036" points="60,170.82,64,161.82,60,165.82,56,161.82,60,170.82" style="stroke: #A80036; stroke-width: 1.0;"/><text fill="#000000" font-family="sans-serif" font-size="13" lengthAdjust="spacingAndGlyphs" textLength="54" x="61" y="137.0669">contains</text><!--MD5=[2ed941c3e511065d429b0e273fa3530b]
@startuml inline_umlgraph_1.svg
class Directory {
  + findFile()
}

Directory - -> ZeppelinFile : contains

note right of Directory
Responsibilities:
- Contains ZeppelinFiles

Collaborators:
- ZeppelinFile
end note
@enduml

PlantUML version 1.2020.02(Sun Mar 01 10:22:07 UTC 2020)
(GPL source distribution)
Java Runtime: OpenJDK Runtime Environment
JVM: OpenJDK 64-Bit Server VM
Java Version: 17.0.16+8
Operating System: Linux
Default Encoding: UTF-8
Language: en
Country: null
--></g></svg>